<svg xmlns="http://www.w3.org/2000/svg" version="1.1" width="128px" height="128px" viewBox="0 0 1024 1024" preserveAspectRatio="none">
 <g fill-rule="evenodd" fill="#000000" stroke="#000000">
  <title>Mojikyo SVG @034768;</title>
  <desc>Mojikyo SVG @034768;</desc>
  <path d="M665,991 L659,982 Q643,923 631,865 619,807 597.0,749.5 575,692 540,642 L531,635 L523,626 L507,615 L495,629 L475,651 L471,658 Q462,670 457.5,681.5 453,693 446.5,704.5 440,716 437,729 Q419,770 408.5,813.5 398,857 390,898 382,939 375,981 L354,985 Q346,976 345.5,964.0 345,952 345,939 345,926 345,914 Q352,873 362.0,829.5 372,786 388.5,744.5 405,703 423,663 Q429,654 434.5,644.0 440,634 446.5,624.5 453,615 456,606 L468,589 L455,567 Q446,567 439.5,562.5 433,558 427,555 421,552 414,548 L405,535 Q400,526 397.5,517.5 395,509 393.0,500.5 391,492 392,483 Q395,473 396.5,462.5 398,452 404,442 410,432 413,423 L421,413 L427,402 L436,393 L443,383 L455,371 Q458,358 464,352 L448,349 L419,332 L413,326 Q403,317 398.5,303.5 394,290 390.5,277.0 387,264 387,250 Q395,234 397.5,228.0 400,222 401.5,214.5 403,207 406.5,201.5 410,196 413.5,189.0 417,182 426,171 L436,159 L445,149 L453,146 L462,136 L492,122 L494,107 L485,51 L492,45 Q495,36 510,32 L521,38 L526,45 L534,51 L534,70 Q534,80 536.5,91.5 539,103 539,113 539,123 539,135 L571,168 L581,179 L594,199 L600,209 Q607,216 610.5,223.5 614,231 614.0,240.5 614,250 616,258 L616,270 Q613,289 612,296 611,303 603,312 L598,322 L584,330 L578,339 L570,348 L557,355 L561,364 L568,373 L571,383 L581,390 Q588,405 595.5,418.5 603,432 607.0,446.5 611,461 613,477 L608,486 Q607,499 602.5,509.0 598,519 593.0,528.5 588,538 581,548 L568,564 L553,574 L550,591 L561,597 L577,621 Q616,674 637,730 658,786 673,843 688,900 695,960 L685,982 L672,984 z M302,578 Q288,577 274.5,573.5 261,570 248.5,565.5 236,561 224,552 L217,548 L208,535 Q197,522 195.5,507.5 194,493 193.0,479.5 192,466 191,454 Q187,434 187,415 187,396 187,377 187,358 185,341 L187,320 L185,292 L191,231 L187,213 L187,200 Q192,186 193.0,172.5 194,159 194.5,144.5 195,130 198,117 L200,101 L197,93 L195,79 L197,71 L203,64 L224,55 Q233,58 236.0,65.5 239,73 242.5,80.5 246,88 245,96 L246,123 Q245,132 242.0,138.5 239,145 237.5,153.0 236,161 242,171 L245,186 Q262,196 283.0,199.5 304,203 325,206 346,209 364,218 L372,225 L376,236 L367,247 L355,252 L320,263 L246,261 L233,261 L232,271 L233,307 L237,338 L245,354 Q267,358 288.5,356.5 310,355 331,358 352,361 372,370 L382,380 L375,391 L371,398 Q357,410 345.0,411.5 333,413 321.5,414.0 310,415 298,415 L276,415 L261,413 L245,415 L237,423 L242,435 Q242,445 242.5,454.5 243,464 244.5,472.0 246,480 252,489 L267,500 Q285,513 304.0,516.5 323,520 342.5,522.5 362,525 381,533 L385,546 L381,558 L381,570 Q368,573 355.5,575.5 343,578 329,578 315,578 302,578 z M629,562 L617,558 L607,557 Q610,546 610,536 L619,525 L624,517 Q635,508 642,507 649,506 657.0,505.5 665,505 680,503 Q694,499 706.0,494.5 718,490 730.0,484.5 742,479 753,474 L763,461 Q772,445 776.0,427.5 780,410 780.0,391.5 780,373 781,355 Q752,367 726.5,375.5 701,384 675.0,394.5 649,405 623,405 L619,394 Q623,387 623.5,380.0 624,373 626.5,367.0 629,361 642,353 655,345 680.0,337.5 705,330 730,321 755,312 778,300 L781,279 L791,218 L781,213 Q756,218 733,225 710,232 685.5,238.0 661,244 637,248 L629,226 L639,200 L661,185 Q680,177 699.0,172.5 718,168 736.5,163.5 755,159 775,155 L793,145 L797,126 L797,116 L787,93 Q800,73 801.5,65.5 803,58 820,51 Q829,54 833,61 L832,109 L833,117 L840,141 Q833,146 837,164 L833,176 L832,284 Q832,309 829.5,330.5 827,352 825.5,374.0 824,396 824,419 L823,441 Q820,452 818.5,459.0 817,466 813.5,473.0 810,480 808,489 L800,500 Q775,520 746.5,530.5 718,541 688,548 658,555 629,562 z M517,526 L536,513 Q542,500 547,492 552,484 552,474 552,464 552,455 Q547,435 543,430 539,425 531,416 L507,412 L498,415 L488,412 L481,407 L472,412 L465,422 Q459,431 452.5,440.5 446,450 443,460 440,470 442,483 Q446,496 449.5,500.5 453,505 459,513 L511,530 z M527,319 L540,309 L544,300 L559,290 Q571,276 571.0,269.5 571,263 571.0,255.5 571,248 569,241 567,234 564.0,226.5 561,219 552,213 L549,203 L530,194 L505,197 L498,183 L461,200 L446,218 L440,225 L433,234 L430,261 L436,273 L446,283 L464,300 L526,320 z "/>
 </g>
</svg>