<svg xmlns="http://www.w3.org/2000/svg" xmlns:xlink="http://www.w3.org/1999/xlink" version="1.1" id="レイヤー_1" x="0px" y="0px" width="69px" height="45px" viewBox="0 0 69 45" enable-background="new 0 0 69 45" xml:space="preserve">
<path fill="#231815" d="M41.982,13.939c0,2.285,1.814,4.172,4.175,4.172c2.284,0,4.17-1.816,4.17-4.172  c0-2.29-1.886-4.175-4.17-4.175C43.73,9.765,41.982,11.72,41.982,13.939 M11.699,29.821c0,2.29,1.885,4.17,4.175,4.17  c2.285,0,4.243-1.814,4.243-4.17c0-2.29-1.885-4.171-4.243-4.171C13.521,25.65,11.699,27.602,11.699,29.821 M33.773,40.585h5.182  V3.17h-5.182V40.585z M23.14,40.585h5.117V3.17H23.14V40.585z"/>
<rect id="_x3C_スライス_x3E__1_" x="11" y="3" fill="none" width="40" height="38"/>
</svg>