<svg xmlns="http://www.w3.org/2000/svg" xmlns:xlink="http://www.w3.org/1999/xlink" version="1.1" id="レイヤー_1" x="0px" y="0px" width="44px" height="50px" viewBox="-4 -2 44 50" enable-background="new -4 -2 44 50" xml:space="preserve">
<path fill="#231815" d="M28.721,19.013h-1.188c0,1.87-0.511,3.06-1.229,3.315l-26.816,9.859v0.72l25.326,9.221  c1.955,0.726,2.72,1.66,2.72,4.333h1.188v-9.263h-1.188c0,3.145-0.851,3.569-1.785,3.569s-1.531-0.211-3.572-0.978L4.966,33.503  l18.445-6.755c0.892-0.339,1.825-0.764,2.805-0.764c0.851,0,1.315,0.596,1.315,3.949h1.189V19.013z M28.721,7.023h-1.188  c0,3.269-0.21,3.821-2.931,3.821H3.606c-2.72,0-2.93-0.552-2.93-4.036h-1.189v10.964h1.189c0-3.145,0.21-3.699,2.93-3.699h20.996  c2.721,0,2.931,0.554,2.931,3.909h1.188V7.023z"/>
<rect id="_x3C_スライス_x3E__3_" x="-5" y="3" fill="none" width="35" height="45"/>
</svg>