<svg xmlns="http://www.w3.org/2000/svg" xmlns:xlink="http://www.w3.org/1999/xlink" version="1.1" id="レイヤー_1" x="0px" y="0px" width="46px" height="25px" viewBox="0 0 46 25" enable-background="new 0 0 46 25" xml:space="preserve">
<path fill="#231815" d="M30.746,8.197c2.074,2.023,4.097,3.313,7.095,3.313c1.935,0,4.331-0.779,4.331-3.04  c0-1.289-0.874-2.305-2.212-2.305c-1.289,0-2.306,0.83-2.306,3.596c-2.943,0-4.561-1.245-6.078-2.581L30.746,8.197z M30.746,16.768  c2.074,2.028,4.097,3.319,7.095,3.319c1.935,0,4.331-0.786,4.331-3.047c0-1.289-0.874-2.306-2.212-2.306  c-1.289,0-2.306,0.83-2.306,3.597c-2.943,0-4.561-1.24-6.078-2.581L30.746,16.768z"/>
<rect id="_x3C_スライス_x3E__3_" x="26" y="6" fill="none" width="20" height="15"/>
</svg>