<svg xmlns="http://www.w3.org/2000/svg" xmlns:xlink="http://www.w3.org/1999/xlink" version="1.1" id="レイヤー_1" x="0px" y="0px" width="46px" height="45px" viewBox="0 -2 46 45" enable-background="new 0 -2 46 45" xml:space="preserve">
<path d="M26.121,35.902h1.57V7.304h-1.57V35.902z M17.156,35.902h1.57V7.304h-1.57V35.902z M31.902,12.533  c0,1.531,1.145,2.759,2.674,2.759s2.719-1.189,2.719-2.72c0-1.484-1.189-2.673-2.719-2.673  C33.092,9.899,31.902,11.088,31.902,12.533 M7.553,30.509c0,1.57,1.189,2.759,2.673,2.759c1.531,0,2.722-1.188,2.722-2.72  c0-1.483-1.191-2.676-2.676-2.676C8.783,27.873,7.553,29.064,7.553,30.509"/>
<rect id="_x3C_スライス_x3E__1_" x="2.746" y="-1.119" transform="matrix(0.0405 -0.9992 0.9992 0.0405 1.007 41.7537)" fill="none" width="38.996" height="42.943"/>
</svg>