<svg xmlns="http://www.w3.org/2000/svg" xmlns:xlink="http://www.w3.org/1999/xlink" version="1.1" id="レイヤー_1" x="0px" y="0px" width="50px" height="50px" viewBox="2.316 2 50 50" enable-background="new 2.316 2 50 50" xml:space="preserve">
<path d="M24.807,39.313c1.89,2.166,2.166,2.581,2.671,4.287c0.367,1.061,0.691,1.477,1.244,1.477c0.646,0,1.199-0.735,1.199-1.616  c0-1.565-0.83-2.396-4.7-4.648L24.807,39.313z M12.641,9.409v8.845H9.782L6.696,17.98l0.459,1.609l2.075-0.229h3.225  C10.936,27.839,9.32,32.451,6,37.334l0.696,0.461c2.625-2.996,3.501-4.331,5.945-9.126v12.81l-0.139,7.512l0.505,0.51  c0.784,0,2.168-1.062,2.119-1.66l-0.09-7.28V26.688c0.876,0.92,1.292,1.476,1.89,2.625c0.461,0.92,0.735,1.201,1.292,1.201  c0.598,0,1.06-0.51,1.06-1.245c0-1.335-0.325-1.615-4.241-4.055v-5.854h6.775v-0.645l-2.815-2.765l-1.841,2.305h-2.12v-8.94  c1.196-0.319,1.521-0.503,1.521-0.918c0-0.461-0.415-0.69-1.66-0.972l-2.537-0.55L12.641,9.409z M24.851,28.81h17.694v3.32H24.851  V28.81z M34.162,14.015v4.469H30.75c0.229-1.658,0.275-1.935,0.459-3.729c0.553-0.232,0.602-0.325,0.734-0.74H34.162z   M24.851,19.589h3.596c-0.646,2.766-1.336,4.104-3.135,5.901l0.505,0.645c2.814-2.209,4.009-3.87,4.705-6.545h3.642v4.104  c0,0.83,0.504,1.292,1.606,1.335h4.242c1.154,0,2.029-0.415,2.029-0.92c0-0.229-0.049-0.278-0.51-0.83l-0.365-0.828l0.045-0.415  l0.23-1.335l-0.738-0.095l-0.506,1.659c-0.275,0.92-0.506,1.061-1.475,1.104h-1.847l-0.597-0.599v-3.181h6.265v8.11H24.851V19.589z   M28.996,14.015c-0.045,2.214-0.045,2.534-0.32,4.469h-3.455l-2.996-1.289l0.229,2.533v11.478l-0.095,4.471l0.601,0.459  c0.876,0,1.89-0.691,1.89-1.335v-1.57h13.271v4.194H20.107l-3.091-0.229l0.461,1.615l2.073-0.281h18.571v7.233  c0,0.461-0.229,0.647-0.83,0.647c-0.32,0-1.15-0.047-1.793-0.092l-4.057-0.274l-0.045,0.733l3.182,0.646  c0.592,0.142,0.734,0.324,0.734,1.06c0,0.691,0.229,0.974,0.74,0.974c0.872,0,2.165-0.416,3.225-1.018  c1.289-0.738,1.52-1.016,1.52-1.934v-7.977h7.836v-0.597l-3.229-2.72l-1.842,2.209h-2.767v-3.27  c0.461-0.281,0.646-0.462,0.646-0.646l-0.096-0.281h1.199v0.925l0.506,0.459c0.74,0,2.031-1.013,2.031-1.613l-0.143-4.24v-8.289  c0.74-0.237,1.244-0.557,1.244-0.881c0-0.32-0.414-0.779-1.476-1.565l-1.521-1.149l-1.244,1.608h-5.664v-3.778  c0.549-0.229,0.645-0.273,0.781-0.688h11.104v-0.647l-2.9-2.854l-1.934,2.395h-7.836l3.408-3.5c1.15-0.096,1.521-0.229,1.521-0.555  c0-0.275-0.506-0.69-1.379-1.149L37.15,6.778l-0.782,1.985l-2.263,4.146H29.41c0.139-0.555,0.186-0.786,0.186-1.15  c0-1.245-1.016-2.214-4.285-4.055l-0.505,0.69c1.335,1.428,1.609,1.89,2.07,3.083c0.278,0.74,0.325,0.786,0.601,1.432H22.04  l-3.088-0.276l0.459,1.611l2.075-0.229H28.996L28.996,14.015z"/>
</svg>