<svg xmlns="http://www.w3.org/2000/svg" xmlns:xlink="http://www.w3.org/1999/xlink" version="1.1" id="レイヤー_1" x="0px" y="0px" width="46px" height="25px" viewBox="0 0 46 25" enable-background="new 0 0 46 25" xml:space="preserve">
<path fill="#231815" d="M42.172,9.678c-2.074-2.031-4.102-3.32-7.095-3.32c-1.935,0-4.336,0.786-4.336,3.04  c0,1.296,0.874,2.305,2.217,2.305c1.289,0,2.306-0.83,2.306-3.594c2.943,0,4.562,1.245,6.078,2.585L42.172,9.678z M42.172,18.248  c-2.074-2.029-4.102-3.32-7.095-3.32c-1.935,0-4.336,0.786-4.336,3.047c0,1.289,0.874,2.307,2.217,2.307  c1.289,0,2.306-0.83,2.306-3.598c2.943,0,4.562,1.24,6.078,2.582L42.172,18.248z"/>
<rect id="_x3C_スライス_x3E__3_" x="26" y="2" fill="none" width="20" height="20"/>
</svg>